<?xml version="1.0" standalone="no"?>
<!DOCTYPE svg PUBLIC "-//W3C//DTD SVG 20010904//EN"
 "http://www.w3.org/TR/2001/REC-SVG-20010904/DTD/svg10.dtd">
<svg version="1.0" xmlns="http://www.w3.org/2000/svg"
 width="380.000000pt" height="380.000000pt" viewBox="0 0 380.000000 380.000000"
 preserveAspectRatio="xMidYMid meet">
<metadata>
Created by potrace 1.14, written by Peter Selinger 2001-2017
</metadata>
<g transform="translate(0.000000,380.000000) scale(0.100000,-0.100000)"
fill="#000000" stroke="none">
<path d="M1470 3784 c-119 -32 -224 -122 -280 -239 -34 -72 -38 -89 -39 -171
l-1 -60 -77 -1 c-251 -3 -441 -206 -429 -458 5 -123 57 -233 144 -306 l38 -31
-61 -62 c-71 -71 -109 -135 -131 -220 -79 -302 151 -596 467 -596 48 0 49 -1
49 -30 0 -42 35 -143 67 -193 60 -96 179 -175 293 -195 185 -34 389 63 469
222 50 102 50 87 50 1056 0 563 -3 922 -10 950 -25 115 -121 245 -219 295
-103 53 -227 67 -330 39z m225 -52 c53 -15 135 -59 135 -72 0 -4 -39 -47 -86
-94 -63 -63 -91 -85 -103 -80 -34 14 -61 16 -95 4 -36 -11 -38 -10 -114 44
-42 31 -88 65 -102 76 l-25 20 30 25 c99 84 235 113 360 77z m249 -222 l31
-65 1 -503 1 -502 -36 21 c-20 12 -56 33 -81 47 -132 74 -164 97 -171 126 -5
16 -19 41 -33 55 -24 26 -24 29 -26 226 -1 110 -3 238 -5 285 -2 85 -2 85 31
118 28 27 34 40 34 76 0 41 5 47 93 135 l92 92 19 -23 c10 -13 33 -52 50 -88z
m-560 -4 c98 -72 101 -75 100 -110 -2 -27 5 -45 24 -67 l25 -31 -64 -158 -64
-159 -103 157 -103 157 3 80 c3 62 10 94 32 143 16 34 33 62 39 62 5 0 55 -33
111 -74z m-247 -245 c17 -1 44 -33 111 -133 48 -73 98 -149 110 -170 l22 -36
-21 -54 c-11 -29 -22 -55 -24 -57 -2 -1 -42 19 -89 45 -73 42 -86 53 -85 74 4
63 -46 110 -114 105 -67 -4 -112 -73 -88 -136 9 -24 2 -33 -98 -133 l-108
-108 -23 49 c-69 146 -43 310 68 434 67 75 195 129 292 123 14 -1 35 -2 47 -3z
m441 -279 l2 -267 -70 108 -70 108 56 137 c31 75 60 147 65 160 5 12 10 22 11
22 2 0 4 -120 6 -268z m-109 -191 c28 -44 51 -82 51 -85 0 -2 -31 14 -70 36
-68 39 -79 51 -61 62 4 3 11 19 14 36 4 16 8 30 11 30 2 0 27 -36 55 -79z
m-247 21 c43 -24 80 -47 83 -52 6 -9 -65 -194 -72 -187 -11 11 -110 273 -106
280 6 10 1 12 95 -41z m-81 -151 l66 -164 -39 -97 c-34 -84 -43 -99 -66 -103
-26 -5 -51 -25 -75 -59 -11 -16 -19 -16 -127 12 -63 17 -128 32 -145 35 -16 4
-34 10 -38 14 -16 16 80 128 147 171 l65 42 -58 39 c-98 65 -99 56 26 179 106
103 112 108 144 101 32 -6 35 -12 100 -170z m345 -32 c2 -62 4 -70 28 -92 l24
-22 -40 -85 c-22 -47 -55 -118 -74 -159 -19 -41 -36 -72 -38 -70 -14 14 -122
297 -118 309 3 8 16 38 28 67 13 28 24 54 24 57 0 2 9 25 20 51 l20 47 63 -35
c57 -31 62 -37 63 -68z m339 -160 l143 -82 -38 -81 c-54 -116 -115 -245 -213
-448 -68 -140 -90 -178 -105 -178 -11 0 -22 8 -25 18 -3 9 -43 111 -90 226
-76 186 -84 211 -72 230 7 12 48 96 90 189 57 124 82 167 95 167 10 0 28 9 41
20 13 10 26 19 28 20 2 0 68 -37 146 -81z m-524 -202 l57 -141 -31 -63 c-17
-35 -34 -63 -37 -63 -4 0 -27 24 -52 53 l-46 54 19 29 c10 16 19 42 19 57 0
31 -24 83 -41 89 -7 2 -1 27 16 71 15 37 30 65 34 62 3 -4 31 -70 62 -148z
m675 -339 c-1 -312 -4 -359 -19 -405 -10 -29 -23 -55 -28 -59 -8 -5 -183 69
-202 86 -4 4 -10 20 -13 36 -3 16 -12 39 -19 51 -16 24 -21 10 154 378 37 77
80 168 96 203 16 34 29 62 31 62 1 0 1 -159 0 -352z m-1092 273 c77 -20 141
-40 142 -46 3 -9 -273 -235 -295 -243 -10 -3 -35 48 -48 98 -14 53 -16 153 -3
199 10 38 13 41 38 34 15 -3 90 -22 166 -42z m322 -190 l63 -73 -18 -37 c-10
-20 -35 -73 -56 -119 -43 -92 -51 -97 -137 -88 -67 7 -101 17 -163 49 -54 27
-138 102 -133 117 2 6 70 63 151 129 l148 118 41 -11 c32 -9 54 -26 104 -85z
m232 -81 c28 -69 57 -143 66 -165 l16 -40 -40 45 c-23 25 -66 75 -96 112 l-55
66 28 56 c15 30 28 54 29 53 1 -1 24 -58 52 -127z m-23 -165 c98 -115 106
-128 98 -153 -5 -15 -8 -33 -7 -39 1 -7 2 -20 3 -29 0 -8 14 -29 30 -45 35
-34 86 -39 131 -12 28 16 31 16 122 -27 51 -23 95 -44 97 -46 3 -3 -12 -22
-33 -43 -42 -43 -130 -87 -192 -96 -21 -4 -48 -8 -59 -10 -36 -5 -125 13 -180
39 -118 54 -208 177 -221 301 -6 58 -4 66 46 173 29 62 54 112 56 112 1 0 50
-56 109 -125z"/>
<path d="M2410 3786 c-74 -21 -146 -63 -200 -116 -86 -87 -126 -190 -129 -331
l-2 -87 168 2 168 2 35 -38 c40 -43 78 -53 126 -33 54 22 75 83 49 139 -36 75
-127 81 -180 12 l-24 -31 -143 0 -143 1 2 69 c1 39 8 88 16 110 l14 40 86 3
c79 3 86 1 92 -18 8 -26 61 -60 93 -60 60 0 113 57 106 114 -11 97 -138 129
-189 49 -19 -31 -22 -32 -90 -32 l-70 0 62 58 c82 79 148 105 263 104 55 0
101 -6 130 -17 59 -22 140 -78 168 -116 l23 -30 -36 0 c-23 0 -35 5 -35 14 0
8 -14 26 -31 40 -44 37 -101 36 -140 -3 -16 -16 -30 -37 -30 -45 -1 -9 -2 -22
-3 -28 -7 -49 51 -108 104 -108 33 0 87 33 95 59 5 18 15 21 56 21 48 0 51 -1
65 -36 21 -49 29 -160 16 -207 l-11 -39 47 7 c95 12 108 12 170 -1 65 -13 127
-44 180 -89 30 -25 92 -111 92 -127 0 -4 -124 -8 -275 -8 l-275 0 -32 35 c-44
48 -90 55 -138 23 -66 -44 -65 -121 2 -171 47 -35 133 -14 145 34 3 11 15 21
27 24 11 2 145 3 296 2 l274 -2 8 -45 c8 -43 4 -107 -8 -157 -6 -23 -9 -23
-133 -23 l-126 0 -17 30 c-45 78 -163 61 -187 -27 -18 -65 32 -133 99 -133 32
0 74 25 90 54 13 26 15 26 127 26 66 0 113 -4 113 -10 0 -24 -96 -120 -152
-152 -20 -12 -35 -25 -32 -30 3 -4 -52 -8 -123 -8 l-128 0 -17 29 c-24 43 -83
59 -130 37 -19 -9 -41 -28 -48 -41 l-13 -25 -324 0 -323 0 0 -165 c0 -125 3
-165 13 -165 6 -1 84 -1 172 0 l160 1 17 -29 c56 -94 209 -41 194 68 -13 95
-144 123 -192 41 l-18 -31 -148 0 -148 0 0 114 0 115 300 0 c286 0 299 -1 305
-19 11 -33 54 -60 98 -60 34 0 46 6 77 39 l38 40 166 -1 167 0 40 -42 c38 -38
76 -100 99 -162 l10 -24 -235 0 -234 0 -17 29 c-30 51 -92 65 -144 34 -57 -33
-66 -104 -21 -155 25 -28 36 -33 76 -33 42 0 51 4 80 38 l32 37 238 0 238 0
-6 -77 c-6 -75 -22 -142 -35 -144 -4 -1 -105 -2 -226 -3 l-218 -1 -15 28 c-17
33 -66 57 -103 50 -35 -6 -71 -31 -77 -54 -6 -23 26 -21 -358 -23 l-320 -1 -3
-164 c-1 -90 2 -189 8 -220 53 -287 397 -437 656 -285 103 60 196 200 210 314
l6 55 72 0 c184 2 358 125 427 302 31 81 35 224 9 309 -25 78 -86 171 -143
218 l-45 37 53 53 c123 123 163 298 106 461 -62 176 -244 299 -430 289 l-51
-2 0 52 c0 181 -113 340 -290 410 -56 23 -199 29 -260 12z m341 -1895 c4 0 9
-10 12 -20 6 -24 47 -51 78 -53 50 -2 62 3 96 40 l34 37 203 0 204 0 -18 -25
c-86 -120 -246 -192 -392 -175 l-58 7 0 -50 c0 -63 -31 -163 -63 -205 -24 -32
-26 -33 -103 -31 -98 2 -91 0 -97 23 -11 43 -83 67 -135 45 -67 -28 -80 -133
-22 -175 55 -39 139 -22 159 33 7 20 16 23 65 23 31 1 56 -3 56 -7 0 -10 -78
-55 -130 -73 -94 -34 -241 -16 -329 40 -91 57 -162 164 -176 268 l-7 47 70 0
c62 0 71 -3 77 -20 8 -25 52 -55 87 -58 61 -7 124 60 113 119 -7 35 -38 73
-68 83 -42 15 -98 -4 -122 -41 -19 -31 -23 -32 -87 -33 l-68 0 0 99 c0 60 4
101 10 103 10 3 595 2 611 -1z"/>
<path d="M2388 3094 c-15 -8 -32 -23 -38 -34 -10 -18 -21 -20 -140 -20 l-130
0 0 -158 0 -158 279 1 278 1 12 -27 c19 -42 81 -65 131 -47 57 20 81 100 46
153 -25 37 -77 58 -113 44 -32 -12 -73 -47 -73 -63 0 -8 -77 -11 -252 -11
l-253 0 -3 108 -3 107 106 0 c95 0 105 -2 105 -18 0 -42 75 -85 124 -71 66 19
98 85 70 144 -28 59 -90 80 -146 49z"/>
<path d="M1009 813 c-5 -15 -45 -130 -89 -257 -43 -127 -85 -251 -94 -275 -9
-24 -16 -45 -16 -48 0 -2 19 -3 42 -1 l41 3 31 93 31 92 109 -2 109 -3 32 -90
32 -90 41 -3 c23 -2 42 -1 42 1 0 3 -41 123 -91 268 -50 145 -95 281 -101 302
-10 36 -11 37 -59 37 -44 0 -51 -3 -60 -27z m141 -325 c0 -4 -38 -8 -85 -8
-97 0 -96 -1 -66 82 11 29 30 86 42 127 l22 73 43 -133 c24 -73 44 -136 44
-141z"/>
<path d="M1420 535 l0 -305 40 0 40 0 0 305 0 305 -40 0 -40 0 0 -305z"/>
<path d="M244 661 c-18 -11 -39 -29 -47 -41 -15 -22 -16 -22 -19 11 -3 30 -7
34 -35 37 l-33 3 0 -220 0 -221 40 0 40 0 0 153 c0 127 3 157 17 177 33 48 78
64 121 43 44 -21 54 -61 54 -228 l1 -145 38 0 39 0 1 145 c1 80 3 150 4 155 1
6 3 14 4 20 2 16 51 60 69 61 103 9 122 -28 122 -236 l0 -145 39 0 40 0 -3
168 c-2 135 -5 173 -19 199 -26 49 -56 72 -103 79 -55 8 -105 -9 -143 -48 -17
-18 -32 -30 -33 -27 -2 2 -8 13 -14 24 -14 27 -72 55 -114 55 -19 0 -49 -9
-66 -19z"/>
<path d="M1693 654 c-42 -25 -62 -57 -62 -99 0 -57 36 -96 125 -134 28 -12 57
-33 64 -46 38 -71 -51 -120 -146 -80 -34 14 -35 14 -44 -11 -6 -14 -8 -29 -5
-34 20 -32 170 -36 222 -5 39 23 67 80 60 124 -9 53 -31 74 -130 125 -58 29
-62 33 -62 66 0 50 35 68 107 53 29 -6 54 -10 55 -9 1 0 4 13 8 28 6 25 4 28
-34 38 -58 15 -116 10 -158 -16z"/>
<path d="M2164 666 c-17 -7 -43 -27 -58 -42 l-26 -29 0 38 c0 36 -1 37 -34 37
-24 0 -36 -5 -38 -17 -2 -9 -2 -148 0 -310 l3 -293 39 0 40 0 0 115 0 115 41
-29 c36 -26 48 -30 100 -27 71 4 124 36 160 99 20 35 24 55 24 127 0 98 -19
146 -77 193 -43 34 -125 46 -174 23z m115 -74 c41 -30 60 -79 57 -147 -3 -73
-20 -112 -65 -142 -55 -37 -125 -19 -161 40 -29 46 -28 156 2 208 37 66 109
84 167 41z"/>
<path d="M2576 665 c-49 -17 -56 -25 -46 -52 8 -20 10 -21 52 -6 53 18 123 12
149 -13 10 -11 21 -34 25 -52 6 -31 5 -32 -27 -33 -71 -1 -148 -22 -183 -50
-108 -85 -46 -247 93 -238 37 3 111 36 111 51 0 4 5 8 10 8 6 0 10 -11 10 -25
0 -23 4 -25 41 -25 23 0 38 4 34 10 -3 5 -6 76 -7 157 -1 148 -8 188 -40 232
-33 46 -143 64 -222 36z m184 -261 c0 -42 -5 -59 -25 -82 -43 -52 -131 -55
-154 -6 -28 63 4 112 86 130 89 19 93 17 93 -42z"/>
<path d="M3110 673 c-42 -14 -94 -46 -115 -71 -31 -34 -55 -104 -55 -156 0
-151 107 -241 263 -222 70 9 81 17 72 54 -6 30 -7 30 -38 17 -42 -17 -115 -10
-146 13 -52 38 -66 69 -66 142 0 74 14 103 68 144 28 20 99 27 148 14 21 -6
28 -3 37 16 9 19 8 27 -4 37 -15 12 -137 22 -164 12z"/>
<path d="M3465 666 c-74 -28 -125 -109 -130 -209 -9 -172 114 -266 298 -227
55 11 58 13 55 38 -2 21 -8 26 -23 24 -135 -22 -203 -3 -235 63 -31 64 -27 75
23 75 23 1 92 2 152 3 l110 2 -1 61 c-2 68 -31 127 -79 158 -37 24 -120 30
-170 12z m132 -65 c24 -20 43 -60 43 -92 0 -18 -8 -19 -116 -19 -115 0 -115 0
-108 23 12 41 34 76 56 91 31 22 98 20 125 -3z"/>
</g>
</svg>
